<?xml version="1.0" encoding="UTF-8"?><svg enable-background="new 0 0 490.667 490.667" version="1.1" viewBox="0 0 490.67 490.67" xml:space="preserve" xmlns="http://www.w3.org/2000/svg"><path d="m105.52 146.99c4.608 3.691 11.307 2.965 14.997-1.643 30.613-38.144 76.075-60.011 124.8-60.011s94.187 21.867 124.8 60.011c2.112 2.624 5.227 3.989 8.341 3.989 2.347 0 4.693-0.768 6.656-2.347 4.587-3.691 5.333-10.411 1.643-14.997-34.688-43.2-86.229-67.989-141.44-67.989s-106.77 24.789-141.44 67.989c-3.691 4.587-2.944 11.307 1.643 14.998z"/><path d="m288 298.67c5.888 0 10.667-4.779 10.667-10.667v-74.667h21.333c5.888 0 10.667-4.779 10.667-10.667s-4.779-10.666-10.667-10.666h-64c-5.888 0-10.667 4.779-10.667 10.667s4.779 10.667 10.667 10.667h21.333v74.666c0 5.888 4.779 10.667 10.667 10.667z"/><path d="m170.67 224v42.667c0 17.643 14.357 32 32 32s32-14.357 32-32v-42.667c0-17.643-14.357-32-32-32s-32 14.357-32 32zm42.666 0v42.667c0 5.888-4.779 10.667-10.667 10.667s-10.666-4.779-10.666-10.667v-42.667c0-5.888 4.779-10.667 10.667-10.667s10.666 4.779 10.666 10.667z"/><path d="m361.34 355.33c-30.592 32.235-71.787 50.005-115.99 50.005-44.203 0-85.397-17.749-115.99-50.005-4.032-4.267-10.795-4.437-15.083-0.405-4.288 4.053-4.459 10.795-0.405 15.083 34.645 36.544 81.344 56.661 131.46 56.661s96.811-20.117 131.5-56.661c4.032-4.288 3.861-11.051-0.405-15.083-4.268-4.032-11.031-3.862-15.084 0.405z"/><path d="m245.33 0c-135.27 0-245.33 110.06-245.33 245.33s110.06 245.33 245.33 245.33 245.33-110.06 245.33-245.33-110.06-245.33-245.33-245.33zm0 469.33c-123.52 0-224-100.48-224-224s100.48-224 224-224 224 100.48 224 224-100.48 224-224 224z"/><path d="m394.67 277.33h-32v-21.333h10.667c5.888 0 10.667-4.779 10.667-10.667s-4.779-10.667-10.667-10.667h-10.667v-21.333h32c5.888 0 10.667-4.779 10.667-10.667s-4.779-10.666-10.667-10.666h-42.667c-5.888 0-10.667 4.779-10.667 10.667v85.333c0 5.888 4.779 10.667 10.667 10.667h42.667c5.888 0 10.667-4.779 10.667-10.667s-4.779-10.667-10.667-10.667z"/><path d="m116.65 291.76 32-85.333c2.069-5.525-0.725-11.669-6.229-13.739-5.547-2.048-11.669 0.704-13.739 6.229l-22.016 58.709-22.016-58.709c-2.069-5.504-8.213-8.256-13.739-6.229-5.504 2.069-8.299 8.213-6.229 13.739l32 85.333c1.557 4.16 5.547 6.912 9.984 6.912s8.426-2.752 9.984-6.912z"/></svg>